<!-- This Source Code Form is subject to the terms of the Mozilla Public
   - License, v. 2.0. If a copy of the MPL was not distributed with this
   - file, You can obtain one at http://mozilla.org/MPL/2.0/. -->
<!-- The menu skin.
   -
   - The menu consis of several parts:
   -  - icons
   -  - base
   -  - baloons
   -  - markers
   -  - items
   -  - shadow text
   -  - texts
   -
   - Icons are defined as symbols and referred from items.
   -
   - The base is the base doughnut of the menu.
   - The base consists of the outer circle clipped with a path and
   - the innner hole.
   -
   - Balloons are backgrounds and borders of the menu label.
   - The backgrounds and borders are represented with separate objects, i.e.
   - four background objects and four border objects for each balloon.
   - Backgrounds or borders consists of tail, circle, rectangle,
   - and another circle.
   -
   - The base and the balloons have shadows and opacity 0.95.
   -
   - Markers denote the items have children.
   -
   - Items are reference to icons.
   -
   - Shadow text is a hidden text used to measure the size of texts.
   -
   - Texts are labels.
   -
   - Balloons and texts are generated with generate_balloon script. -->
<svg version="1.1" id="menu" class="supress-compass-menu" xmlns="http://www.w3.org/2000/svg" width="700px" height="300px" data-supress-compass-menu='data-supress-compass-menu'>
  <defs>
    <filter id="drop-shadow" filterUnits="userSpaceOnUse" x="-300" y="-100" width="700" height="300">
      <feGaussianBlur in="SourceAlpha" stdDeviation="5" result="blur"/>
      <feOffset in="blur" dx="0" dy="5" result="offsetBlur"/>
      <feComponentTransfer in="offsetBlur" result="offsetBlurAlpha">
        <feFuncA type="linear" slope="0.2"/>
      </feComponentTransfer>
      <feMerge>
        <feMergeNode in="offsetBlurAlpha"/>
        <feMergeNode in="SourceGraphic"/>
      </feMerge>
    </filter>
    <clipPath id="clip">
      <path d="M0,0 100,0 100,100 0,100 0,0  M32.5,50 A17.5,17.5 0 1 0 67.5,50 A17.5,17.5 0 1 0 32.5,50" clip-rule="evenodd"/>
    </clipPath>
  </defs>

  <g transform="translate(300, 100)">
    <g filter="url(#drop-shadow)" opacity=".95">
      <g clip-path="url(#clip)">
        <circle id="outer" cx="50" cy="50" r="45" stroke="#C0C0C0" stroke-width="1" fill="white"/>
      </g>
      <circle id="hole" cx="50" cy="50" r="17.5" stroke="#C0C0C0" stroke-width="1" fill="none"/>

      <g id="balloon0">
        <path d="M107.000,47.000 103.000,50.000 107.000,53.000" stroke="#C0C0C0" stroke-width="2" fill="none"/>
        <circle cx="117.000" cy="50.000" r="11.0" stroke="#C0C0C0" stroke-width="2" fill="none"/>
        <circle id="circle_stroke0" cx="215.000" cy="50.000" r="11.0" stroke="#C0C0C0" stroke-width="2" fill="none"/>
        <rect id="rect_stroke0" x="117.000" y="39.000" width="98" height="22" stroke="#C0C0C0" stroke-width="2" fill="none"/>
        <path d="M107.000,47.000 103.000,50.000 107.000,53.000" stroke="none" fill="white"/>
        <circle cx="117.000" cy="50.000" r="11.0" stroke="none" fill="white"/>
        <circle id="circle_fill0" cx="215.000" cy="50.000" r="11.0" stroke="none" fill="white"/>
        <rect id="rect_fill0" x="117.000" y="39.000" width="98" height="22" stroke="none" fill="white"/>
      </g>
      <g id="balloon1">
        <path d="M92.426,88.184 87.477,87.477 88.184,92.426" stroke="#C0C0C0" stroke-width="2" fill="none"/>
        <circle cx="97.376" cy="97.376" r="11.0" stroke="#C0C0C0" stroke-width="2" fill="none"/>
        <circle id="circle_stroke1" cx="195.376" cy="97.376" r="11.0" stroke="#C0C0C0" stroke-width="2" fill="none"/>
        <rect id="rect_stroke1" x="97.376" y="86.376" width="98" height="22" stroke="#C0C0C0" stroke-width="2" fill="none"/>
        <path d="M92.426,88.184 87.477,87.477 88.184,92.426" stroke="none" fill="white"/>
        <circle cx="97.376" cy="97.376" r="11.0" stroke="none" fill="white"/>
        <circle id="circle_fill1" cx="195.376" cy="97.376" r="11.0" stroke="none" fill="white"/>
        <rect id="rect_fill1" x="97.376" y="86.376" width="98" height="22" stroke="none" fill="white"/>
      </g>
      <g id="balloon2">
        <path d="M53.000,107.000 50.000,103.000 47.000,107.000" stroke="#C0C0C0" stroke-width="2" fill="none"/>
        <circle cx="50.000" cy="117.000" r="11.0" stroke="#C0C0C0" stroke-width="2" fill="none"/>
        <g transform="rotate(-20, 50.000, 117.000)"><circle id="circle_stroke2" cx="-48.000" cy="117.000" r="11.0" stroke="#C0C0C0" stroke-width="2" fill="none"/>
          <rect id="rect_stroke2" x="-48.000" y="106.000" width="98" height="22" stroke="#C0C0C0" stroke-width="2" fill="none"/>
        </g>
        <path d="M53.000,107.000 50.000,103.000 47.000,107.000" stroke="none" fill="white"/>
        <circle cx="50.000" cy="117.000" r="11.0" stroke="none" fill="white"/>
        <g transform="rotate(-20, 50.000, 117.000)"><circle id="circle_fill2" cx="-48.000" cy="117.000" r="11.0" stroke="none" fill="white"/>
          <rect id="rect_fill2" x="-48.000" y="106.000" width="98" height="22" stroke="none" fill="white"/>
        </g>
      </g>
      <g id="balloon3">
        <path d="M11.816,92.426 12.523,87.477 7.574,88.184" stroke="#C0C0C0" stroke-width="2" fill="none"/>
        <circle cx="2.624" cy="97.376" r="11.0" stroke="#C0C0C0" stroke-width="2" fill="none"/>
        <circle id="circle_stroke3" cx="-95.376" cy="97.376" r="11.0" stroke="#C0C0C0" stroke-width="2" fill="none"/>
        <rect id="rect_stroke3" x="-95.376" y="86.376" width="98" height="22" stroke="#C0C0C0" stroke-width="2" fill="none"/>
        <path d="M11.816,92.426 12.523,87.477 7.574,88.184" stroke="none" fill="white"/>
        <circle cx="2.624" cy="97.376" r="11.0" stroke="none" fill="white"/>
        <circle id="circle_fill3" cx="-95.376" cy="97.376" r="11.0" stroke="none" fill="white"/>
        <rect id="rect_fill3" x="-95.376" y="86.376" width="98" height="22" stroke="none" fill="white"/>
      </g>
      <g id="balloon4">
        <path d="M-7.000,53.000 -3.000,50.000 -7.000,47.000" stroke="#C0C0C0" stroke-width="2" fill="none"/>
        <circle cx="-17.000" cy="50.000" r="11.0" stroke="#C0C0C0" stroke-width="2" fill="none"/>
        <circle id="circle_stroke4" cx="-115.000" cy="50.000" r="11.0" stroke="#C0C0C0" stroke-width="2" fill="none"/>
        <rect id="rect_stroke4" x="-115.000" y="39.000" width="98" height="22" stroke="#C0C0C0" stroke-width="2" fill="none"/>
        <path d="M-7.000,53.000 -3.000,50.000 -7.000,47.000" stroke="none" fill="white"/>
        <circle cx="-17.000" cy="50.000" r="11.0" stroke="none" fill="white"/>
        <circle id="circle_fill4" cx="-115.000" cy="50.000" r="11.0" stroke="none" fill="white"/>
        <rect id="rect_fill4" x="-115.000" y="39.000" width="98" height="22" stroke="none" fill="white"/>
      </g>
      <g id="balloon5">
        <path d="M7.574,11.816 12.523,12.523 11.816,7.574" stroke="#C0C0C0" stroke-width="2" fill="none"/>
        <circle cx="2.624" cy="2.624" r="11.0" stroke="#C0C0C0" stroke-width="2" fill="none"/>
        <circle id="circle_stroke5" cx="-95.376" cy="2.624" r="11.0" stroke="#C0C0C0" stroke-width="2" fill="none"/>
        <rect id="rect_stroke5" x="-95.376" y="-8.376" width="98" height="22" stroke="#C0C0C0" stroke-width="2" fill="none"/>
        <path d="M7.574,11.816 12.523,12.523 11.816,7.574" stroke="none" fill="white"/>
        <circle cx="2.624" cy="2.624" r="11.0" stroke="none" fill="white"/>
        <circle id="circle_fill5" cx="-95.376" cy="2.624" r="11.0" stroke="none" fill="white"/>
        <rect id="rect_fill5" x="-95.376" y="-8.376" width="98" height="22" stroke="none" fill="white"/>
      </g>
      <g id="balloon6">
        <path d="M47.000,-7.000 50.000,-3.000 53.000,-7.000" stroke="#C0C0C0" stroke-width="2" fill="none"/>
        <circle cx="50.000" cy="-17.000" r="11.0" stroke="#C0C0C0" stroke-width="2" fill="none"/>
        <g transform="rotate(-20, 50.000, -17.000)"><circle id="circle_stroke6" cx="148.000" cy="-17.000" r="11.0" stroke="#C0C0C0" stroke-width="2" fill="none"/>
          <rect id="rect_stroke6" x="50.000" y="-28.000" width="98" height="22" stroke="#C0C0C0" stroke-width="2" fill="none"/>
        </g>
        <path d="M47.000,-7.000 50.000,-3.000 53.000,-7.000" stroke="none" fill="white"/>
        <circle cx="50.000" cy="-17.000" r="11.0" stroke="none" fill="white"/>
        <g transform="rotate(-20, 50.000, -17.000)"><circle id="circle_fill6" cx="148.000" cy="-17.000" r="11.0" stroke="none" fill="white"/>
          <rect id="rect_fill6" x="50.000" y="-28.000" width="98" height="22" stroke="none" fill="white"/>
        </g>
      </g>
      <g id="balloon7">
        <path d="M88.184,7.574 87.477,12.523 92.426,11.816" stroke="#C0C0C0" stroke-width="2" fill="none"/>
        <circle cx="97.376" cy="2.624" r="11.0" stroke="#C0C0C0" stroke-width="2" fill="none"/>
        <circle id="circle_stroke7" cx="195.376" cy="2.624" r="11.0" stroke="#C0C0C0" stroke-width="2" fill="none"/>
        <rect id="rect_stroke7" x="97.376" y="-8.376" width="98" height="22" stroke="#C0C0C0" stroke-width="2" fill="none"/>
        <path d="M88.184,7.574 87.477,12.523 92.426,11.816" stroke="none" fill="white"/>
        <circle cx="97.376" cy="2.624" r="11.0" stroke="none" fill="white"/>
        <circle id="circle_fill7" cx="195.376" cy="2.624" r="11.0" stroke="none" fill="white"/>
        <rect id="rect_fill7" x="97.376" y="-8.376" width="98" height="22" stroke="none" fill="white"/>
      </g>
    </g>

    <path id="marker0" d="M93.7801832722331,54.3926703324604 A44,44 0 0 0 93.7801832722331,45.6073296675396" stroke="#666" stroke-width="2" stroke-linecap="round" fill="none"/>
    <path id="marker1" d="M77.8511774937862,84.0633514529856 A44,44 0 0 0 84.0633514529856,77.8511774937862" stroke="#666" stroke-width="2" stroke-linecap="round" fill="none"/>
    <path id="marker2" d="M45.6073296675396,93.7801832722331 A44,44 0 0 0 54.3926703324604,93.7801832722331" stroke="#666" stroke-width="2" stroke-linecap="round" fill="none"/>
    <path id="marker3" d="M15.9366485470144,77.8511774937862 A44,44 0 0 0 22.1488225062138,84.0633514529856" stroke="#666" stroke-width="2" stroke-linecap="round" fill="none"/>
    <path id="marker4" d="M6.21981672776687,45.6073296675396 A44,44 0 0 0 6.21981672776687,54.3926703324604" stroke="#666" stroke-width="2" stroke-linecap="round" fill="none"/>
    <path id="marker5" d="M22.1488225062138,15.9366485470144 A44,44 0 0 0 15.9366485470144,22.1488225062138" stroke="#666" stroke-width="2" stroke-linecap="round" fill="none"/>
    <path id="marker6" d="M54.3926703324604,6.21981672776687 A44,44 0 0 0 45.6073296675396,6.21981672776687" stroke="#666" stroke-width="2" stroke-linecap="round" fill="none"/>
    <path id="marker7" d="M84.0633514529856,22.1488225062138 A44,44 0 0 0 77.8511774937862,15.9366485470144" stroke="#666" stroke-width="2" stroke-linecap="round" fill="none"/>

    <use id="item0" x="73" y="39.5" href="menu_icons.svg#forward"/>
    <use id="item1" x="63.1880771697493" y="63.1880771697493" href="menu_icons.svg#page"/>
    <use id="item2" x="39.5" y="73" href="menu_icons.svg#save"/>
    <use id="item3" x="15.8119228302507" y="63.1880771697493" href="menu_icons.svg#page"/>
    <use id="item4" x="6" y="39.5" href="menu_icons.svg#back"/>
    <use id="item5" x="15.8119228302507" y="15.8119228302507" href="menu_icons.svg#window"/>
    <use id="item6" x="39.5" y="6" href="menu_icons.svg#up"/>
    <use id="item7" x="63.1880771697493" y="15.8119228302507" href="menu_icons.svg#tab"/>

    <text id="shadow_text" x="0" y="0" font-size="16" stroke="none" fill="#666666" text-anchor="start" dominant-baseline="central" display="none"></text>

    <text id="text0" x="117.000" y="50.000" font-size="16" stroke="none" fill="#666666" text-anchor="start" dominant-baseline="central">Quick Brown Fog</text>
    <text id="text1" x="97.376" y="97.376" font-size="16" stroke="none" fill="#666666" text-anchor="start" dominant-baseline="central">Quick Brown Fog</text>
    <g transform="rotate(-20, 50.000, 117.000)"><text id="text2" x="50.000" y="117.000" font-size="16" stroke="none" fill="#666666" text-anchor="end" dominant-baseline="central">Quick Brown Fog</text>
    </g>
    <text id="text3" x="2.624" y="97.376" font-size="16" stroke="none" fill="#666666" text-anchor="end" dominant-baseline="central">Quick Brown Fog</text>
    <text id="text4" x="-17.000" y="50.000" font-size="16" stroke="none" fill="#666666" text-anchor="end" dominant-baseline="central">Quick Brown Fog</text>
    <text id="text5" x="2.624" y="2.624" font-size="16" stroke="none" fill="#666666" text-anchor="end" dominant-baseline="central">Quick Brown Fog</text>
    <g transform="rotate(-20, 50.000, -17.000)"><text id="text6" x="50.000" y="-17.000" font-size="16" stroke="none" fill="#666666" text-anchor="start" dominant-baseline="central">Quick Brown Fog</text>
    </g>
    <text id="text7" x="97.376" y="2.624" font-size="16" stroke="none" fill="#666666" text-anchor="start" dominant-baseline="central">Quick Brown Fog</text>
  </g>
</svg>
